<svg width="82" height="26" viewBox="0 0 82 26" fill="none" xmlns="http://www.w3.org/2000/svg">
<path fill-rule="evenodd" clip-rule="evenodd" d="M22.1923 3.80775C19.7368 1.35229 16.4722 0 13 0C9.52778 0 6.26321 1.35229 3.80775 3.80775C1.35229 6.2632 0 9.52776 0 13C0 16.4722 1.35229 19.7368 3.80775 22.1922C6.26321 24.6477 9.52778 26 13 26C16.4722 26 19.7368 24.6477 22.1923 22.1922C24.6477 19.7368 26 16.4722 26 13C26 9.52776 24.6477 6.2632 22.1923 3.80775ZM13.4736 25.0438V17.2633H16.4902L17.1871 17.8682C17.0075 18.1903 16.9054 18.5618 16.9054 18.9569C16.9054 20.1969 17.9098 21.2013 19.1499 21.2013C20.39 21.2013 21.3943 20.1969 21.3943 18.9569C21.3943 17.7168 20.39 16.7123 19.1499 16.7123C18.6471 16.7123 18.1836 16.8773 17.8099 17.1567L16.8436 16.3184H13.4747V13.4702H17.8975C18.114 14.4825 19.014 15.2422 20.0914 15.2422C21.3315 15.2422 22.3359 14.2378 22.3359 12.9977C22.3359 11.7577 21.3315 10.7533 20.0914 10.7533C19.014 10.7533 18.114 11.5131 17.8975 12.5253H13.4747V9.67707H16.8436L17.8032 8.84435C18.178 9.12606 18.6448 9.29324 19.1499 9.29324C20.39 9.29324 21.3943 8.28886 21.3943 7.04879C21.3943 5.8087 20.39 4.8043 19.1499 4.8043C17.9098 4.8043 16.9054 5.8087 16.9054 7.04879C16.9054 7.44152 17.0064 7.80962 17.1837 8.13059L16.4913 8.7321H13.4747V7.1576C14.487 6.94102 15.2467 6.04101 15.2467 4.96366C15.2467 3.72358 14.2424 2.71918 13.0023 2.71918C11.7622 2.71918 10.7578 3.72358 10.7578 4.96366C10.7578 6.04101 11.5175 6.94102 12.5298 7.1576V8.7321H9.5132L8.82079 8.13059C8.99807 7.80962 9.09911 7.44152 9.09911 7.04879C9.09911 5.8087 8.09468 4.8043 6.8546 4.8043C5.61456 4.8043 4.61016 5.8087 4.61016 7.04879C4.61016 8.28886 5.61456 9.29324 6.8546 9.29324C7.35965 9.29324 7.82651 9.12606 8.20131 8.84435L9.16085 9.67707H12.5298V12.5253H8.10704C7.89046 11.5131 6.99044 10.7533 5.91307 10.7533C4.673 10.7533 3.66859 11.7577 3.66859 12.9977C3.66859 14.2378 4.673 15.2422 5.91307 15.2422C6.99044 15.2422 7.89046 14.4825 8.10704 13.4702H12.5298V16.3184H9.16085L8.1946 17.1567C7.82085 16.8773 7.35626 16.7123 6.8546 16.7123C5.61456 16.7123 4.61016 17.7168 4.61016 18.9569C4.61016 20.1969 5.61456 21.2013 6.8546 21.2013C8.09468 21.2013 9.09911 20.1969 9.09911 18.9569C9.09911 18.5618 8.99697 18.1903 8.81741 17.8682L9.51431 17.2633H12.5309V25.0438C6.10273 24.7947 0.949408 19.4876 0.949408 13C0.949408 6.35298 6.35636 0.946043 13.0034 0.946043C19.6504 0.946043 25.0573 6.35298 25.0573 13C25.0551 19.4888 19.9018 24.7947 13.4736 25.0438Z" fill="black"/>
<path d="M45.5055 7.21058H47.7704V20.2372H45.5055V17.9962C44.3774 19.7158 42.737 20.5756 40.5859 20.5756C38.7471 20.5756 37.1929 19.9161 35.9268 18.5953C34.6416 17.2572 34 15.6343 34 13.7231C34 11.8308 34.6416 10.2148 35.9268 8.87668C37.2101 7.53868 38.7643 6.87048 40.5859 6.87048C42.737 6.87048 44.3774 7.73028 45.5055 9.44988V7.21058ZM40.8723 18.3881C42.1901 18.3881 43.2924 17.9461 44.1773 17.0604C45.0622 16.1575 45.5055 15.0456 45.5055 13.7248C45.5055 12.4057 45.0622 11.3025 44.1773 10.4168C43.2924 9.51378 42.1901 9.06148 40.8723 9.06148C39.5716 9.06148 38.478 9.51378 37.5931 10.4168C36.7082 11.3025 36.2648 12.4057 36.2648 13.7248C36.2648 15.0456 36.7082 16.1575 37.5931 17.0604C38.4763 17.9461 39.5699 18.3881 40.8723 18.3881Z" fill="black"/>
<path d="M52.319 9.73834C53.0642 8.12224 54.4183 7.31604 56.3796 7.31604V9.66064C55.2687 9.60884 54.3148 9.90404 53.5161 10.548C52.7175 11.192 52.319 12.2279 52.319 13.6557V20.5756H50.0541V7.54904H52.319V9.73834Z" fill="black"/>
<path d="M65.8478 6.8705C67.6694 6.8705 69.2236 7.5387 70.5069 8.8767C71.7903 10.2148 72.4337 11.8291 72.4337 13.7231C72.4337 15.6343 71.792 17.2572 70.5069 18.5953C69.2408 19.9161 67.6866 20.5756 65.8478 20.5756C63.6778 20.5756 62.039 19.7158 60.9281 17.9962V20.2372H58.6633V2H60.9281V9.4517C62.0373 7.7303 63.6778 6.8705 65.8478 6.8705ZM65.5614 18.3864C66.8621 18.3864 67.9557 17.9444 68.8406 17.0587C69.7255 16.1557 70.1688 15.0438 70.1688 13.7231C70.1688 12.404 69.7255 11.3008 68.8406 10.4151C67.9557 9.5121 66.8621 9.0597 65.5614 9.0597C64.2418 9.0597 63.1413 9.5121 62.2564 10.4151C61.3715 11.3008 60.9281 12.404 60.9281 13.7231C60.9281 15.0438 61.3715 16.1557 62.2564 17.0587C63.1396 17.9444 64.2418 18.3864 65.5614 18.3864Z" fill="black"/>
<path d="M76.9823 9.73834C77.7275 8.12224 79.0816 7.31604 81.0429 7.31604V9.66064C79.932 9.60884 78.9781 9.90404 78.1794 10.548C77.3808 11.192 76.9823 12.2279 76.9823 13.6557V20.5756H74.7174V7.54904H76.9823V9.73834Z" fill="black"/>
</svg>
